<svg width="17" height="17" viewBox="0 0 17 17" fill="none" xmlns="http://www.w3.org/2000/svg">
<path d="M10.7324 8.08191L8.67188 10.1429V4.84991C8.67188 4.57391 8.44788 4.34991 8.17188 4.34991C7.89588 4.34991 7.67188 4.57391 7.67188 4.84991V10.1429L5.61138 8.08241C5.41588 7.88691 5.09938 7.88691 4.90437 8.08241C4.70887 8.27791 4.70887 8.59441 4.90437 8.78939L7.73287 11.6179C7.85287 11.7379 8.01687 11.7749 8.1724 11.7474C8.3274 11.7749 8.4919 11.7374 8.6119 11.6179L11.4404 8.78939C11.6359 8.59389 11.6359 8.27742 11.4404 8.08241C11.2444 7.88691 10.9279 7.88691 10.7324 8.08191ZM8.17188 0.349915C3.75389 0.349915 0.171875 3.9314 0.171875 8.34991C0.171875 12.7684 3.75389 16.3499 8.17188 16.3499C12.5899 16.3499 16.1719 12.7679 16.1719 8.34991C16.1719 3.93193 12.5904 0.349915 8.17188 0.349915ZM8.17188 15.3499C4.30586 15.3499 1.17188 12.2159 1.17188 8.34991C1.17188 4.4839 4.30586 1.34991 8.17188 1.34991C12.0379 1.34991 15.1719 4.4839 15.1719 8.34991C15.1719 12.2159 12.0379 15.3499 8.17188 15.3499Z" fill="white"/>
</svg>
